<svg width="87" height="86" viewBox="0 0 87 86" fill="none" xmlns="http://www.w3.org/2000/svg">
<path d="M85.9209 26.0719L81.3817 38.9443C79.4486 44.422 73.4398 48.8658 67.9597 48.8658H52.8958L61.8694 23.4169L47.2783 36.578H33.9145L37.6199 26.0719C39.553 20.5918 45.5618 16.1504 51.0419 16.1504H79.4976C84.9777 16.1504 87.8517 20.5918 85.9209 26.0719Z" fill="#004FFF"/>
<path d="M52.8957 48.8658L49.1903 59.3719C47.2572 64.852 41.2484 69.2934 35.7683 69.2934H7.31265C1.83253 69.2934 -1.04145 64.852 0.889285 59.3719L5.42849 46.4995C7.36156 41.0217 13.3704 36.578 18.8505 36.578H33.9144L24.9408 62.0269L39.2944 48.8658H52.8957Z" fill="#004FFF"/>
</svg>
