<svg width="571" height="634" viewBox="0 0 571 634" fill="none" xmlns="http://www.w3.org/2000/svg">
<path fill-rule="evenodd" clip-rule="evenodd" d="M12 0C5.37259 0 0 5.37258 0 12V84C0 90.6274 5.37259 96 12 96H84C90.6274 96 96 90.6274 96 84V12C96 5.37258 90.6274 0 84 0H12ZM0 114C0 112.895 0.895416 112 2 112H349C350.105 112 351 112.895 351 114V131C351 132.105 350.105 133 349 133H2C0.895447 133 0 132.105 0 131V114ZM0 322C0 320.895 0.895416 320 2 320H569C570.105 320 571 320.895 571 322V329C571 330.105 570.105 331 569 331H2C0.895416 331 0 330.105 0 329V322ZM0 532C0 530.895 0.895416 530 2 530H569C570.105 530 571 530.895 571 532V539C571 540.105 570.105 541 569 541H2C0.895416 541 0 540.105 0 539V532ZM2 356C0.895416 356 0 356.895 0 358V365C0 366.105 0.895447 367 2 367H540C541.105 367 542 366.105 542 365V358C542 356.895 541.105 356 540 356H2ZM0 568C0 566.895 0.895416 566 2 566H540C541.105 566 542 566.895 542 568V575C542 576.105 541.105 577 540 577H2C0.895447 577 0 576.105 0 575V568ZM2 374C0.895416 374 0 374.895 0 376V383C0 384.105 0.895416 385 2 385H160C161.105 385 162 384.105 162 383V376C162 374.895 161.105 374 160 374H2ZM0 586C0 584.895 0.895416 584 2 584H160C161.105 584 162 584.895 162 586V593C162 594.105 161.105 595 160 595H2C0.895416 595 0 594.105 0 593V586ZM2 338C0.895416 338 0 338.895 0 340V347C0 348.105 0.895416 349 2 349H509C510.105 349 511 348.105 511 347V340C511 338.895 510.105 338 509 338H2ZM0 550C0 548.895 0.895416 548 2 548H509C510.105 548 511 548.895 511 550V557C511 558.105 510.105 559 509 559H2C0.895416 559 0 558.105 0 557V550ZM12 456C5.37259 456 0 461.373 0 468V497C0 503.627 5.37259 509 12 509H41C47.6274 509 53 503.627 53 497V468C53 461.373 47.6274 456 41 456H12ZM75 250C73.8954 250 73 250.895 73 252V269C73 270.105 73.8954 271 75 271H192C193.105 271 194 270.105 194 269V252C194 250.895 193.105 250 192 250H75ZM73 462C73 460.895 73.8954 460 75 460H192C193.105 460 194 460.895 194 462V479C194 480.105 193.105 481 192 481H75C73.8954 481 73 480.105 73 479V462ZM2 403C0.895416 403 0 403.895 0 405V422C0 423.105 0.895416 424 2 424H119C120.105 424 121 423.105 121 422V405C121 403.895 120.105 403 119 403H2ZM0 615C0 613.895 0.895416 613 2 613H119C120.105 613 121 613.895 121 615V632C121 633.105 120.105 634 119 634H2C0.895416 634 0 633.105 0 632V615ZM227 403C225.895 403 225 403.895 225 405V422C225 423.105 225.895 424 227 424H344C345.105 424 346 423.105 346 422V405C346 403.895 345.105 403 344 403H227ZM225 615C225 613.895 225.895 613 227 613H344C345.105 613 346 613.895 346 615V632C346 633.105 345.105 634 344 634H227C225.895 634 225 633.105 225 632V615ZM452 403C450.895 403 450 403.895 450 405V422C450 423.105 450.895 424 452 424H569C570.105 424 571 423.105 571 422V405C571 403.895 570.105 403 569 403H452ZM450 615C450 613.895 450.895 613 452 613H569C570.105 613 571 613.895 571 615V632C571 633.105 570.105 634 569 634H452C450.895 634 450 633.105 450 632V615ZM75 279C73.8954 279 73 279.895 73 281V290C73 291.105 73.8954 292 75 292H146C147.105 292 148 291.105 148 290V281C148 279.895 147.105 279 146 279H75ZM73 491C73 489.895 73.8954 489 75 489H146C147.105 489 148 489.895 148 491V500C148 501.105 147.105 502 146 502H75C73.8954 502 73 501.105 73 500V491ZM2 177C0.895416 177 0 177.895 0 179V209C0 210.105 0.895416 211 2 211H186C187.105 211 188 210.105 188 209V179C188 177.895 187.105 177 186 177H2ZM0 144C0 142.895 0.895416 142 2 142H239C240.105 142 241 142.895 241 144V151C241 152.105 240.105 153 239 153H2C0.895416 153 0 152.105 0 151V144ZM12 246C5.37259 246 0 251.373 0 258V287C0 293.627 5.37259 299 12 299H41C47.6274 299 53 293.627 53 287V258C53 251.373 47.6274 246 41 246H12Z" fill="url(#paint0_linear_223_189)"/>
<defs>
<linearGradient id="paint0_linear_223_189" x1="285.5" y1="0" x2="285.5" y2="634" gradientUnits="userSpaceOnUse">
<stop stop-color="#E6E3E3"/>
<stop offset="1" stop-color="#E4E1E1" stop-opacity="0"/>
</linearGradient>
</defs>
</svg>
